<svg xmlns="http://www.w3.org/2000/svg" width="202" height="52" viewBox="0 0 202 52">
	<g opacity=".2" transform="translate(1 2)">
      <path d="M44.21,40.2h0c-.76,2.4-1.6,3.26-4.16,4a62.56,62.56,0,0,1-13.62,1.68V39.08a4.29,4.29,0,0,0,.86-.34l8.66-4.85a5.59,5.59,0,0,0,2.58-4.41V19.93a5.6,5.6,0,0,0-2.58-4.41l-8.66-4.86a5.9,5.9,0,0,0-5.17,0l-8.66,4.85a5.6,5.6,0,0,0-2.58,4.43v9.55a5.6,5.6,0,0,0,2.58,4.41l8.66,4.85a4.26,4.26,0,0,0,.86.34v6.83A63.48,63.48,0,0,1,9.34,44.24c-2.52-.78-3.39-1.64-4.16-4A65.39,65.39,0,0,1,3.44,24.7,66.08,66.08,0,0,1,5.19,9.2c.76-2.43,1.63-3.27,4.16-4A64.23,64.23,0,0,1,24.7,3.44,65,65,0,0,1,40,5.16c2.53.77,3.39,1.61,4.12,4A65.35,65.35,0,0,1,45.9,24.7a66.11,66.11,0,0,1-1.69,15.5M14.32,20.73h0L23,25.81v9.44l-7.85-4.38a2.34,2.34,0,0,1-.82-1.37Zm10.37,2.06h0l-8.4-4.92,7.5-4.21a2.65,2.65,0,0,1,1.79,0l7.5,4.21Zm1.73,3h0L35,20.73v8.75a2.34,2.34,0,0,1-.82,1.37l-7.81,4.4ZM47.53,8.25C46.42,4.68,44.68,3,41,1.85A66.93,66.93,0,0,0,24.7,0h0A67,67,0,0,0,8.39,1.83C4.71,2.95,3,4.66,1.87,8.25A68,68,0,0,0,0,24.7,68,68,0,0,0,1.87,41.19C3,44.76,4.71,46.48,8.39,47.6a66.94,66.94,0,0,0,16.31,1.83h0A66.93,66.93,0,0,0,41,47.6c3.68-1.11,5.41-2.83,6.52-6.4A68,68,0,0,0,49.38,24.7,68,68,0,0,0,47.53,8.25Z"/>
      <path d="M86,28H78.93v7.8H68V28H60.94V48H68V39.86H79V48H86Zm17.66,20.17a43.15,43.15,0,0,0,5.61-.32,14.11,14.11,0,0,0,4.07-1.13,5.94,5.94,0,0,0,2.58-2.19,6.67,6.67,0,0,0,.89-3.61V35a6.69,6.69,0,0,0-.91-3.63,5.91,5.91,0,0,0-2.58-2.19,14.2,14.2,0,0,0-4.06-1,50.11,50.11,0,0,0-11.21,0A14.17,14.17,0,0,0,94,29.28a6,6,0,0,0-2.59,2.16A6.66,6.66,0,0,0,90.48,35v5.86a6.66,6.66,0,0,0,.91,3.65A6,6,0,0,0,94,46.73a14.13,14.13,0,0,0,4.07,1.11,42.75,42.75,0,0,0,5.59.34Zm0-4.07a18.36,18.36,0,0,1-3.39-.23,2.84,2.84,0,0,1-1.84-1.08,4.7,4.7,0,0,1-.63-2.46V35.64a4.56,4.56,0,0,1,.64-2.43,2.85,2.85,0,0,1,1.83-1.07,18.5,18.5,0,0,1,3.39-.23,26.27,26.27,0,0,1,2.71.11,4.89,4.89,0,0,1,1.76.48,2.36,2.36,0,0,1,1.08,1.17,5.14,5.14,0,0,1,.32,2v4.67a4.34,4.34,0,0,1-.58,2.45,2.87,2.87,0,0,1-1.86,1.09,18.78,18.78,0,0,1-3.44.24ZM138.7,28V41.1a2.86,2.86,0,0,1-.58,1.92,2.89,2.89,0,0,1-1.7.86,22.24,22.24,0,0,1-5.74,0A2.92,2.92,0,0,1,129,43a2.84,2.84,0,0,1-.6-1.92V28h-7V41.46a9.49,9.49,0,0,0,.45,3.18,3.9,3.9,0,0,0,1.63,1.94,10,10,0,0,0,3.67,1.19,41.51,41.51,0,0,0,6.49.4,40.45,40.45,0,0,0,6.28-.39,10.51,10.51,0,0,0,3.7-1.18,4.18,4.18,0,0,0,1.75-2,8.52,8.52,0,0,0,.51-3.17V28Zm11.68,14a7,7,0,0,0,.69,3.12A4.45,4.45,0,0,0,153.19,47a11.68,11.68,0,0,0,3.62.9,54,54,0,0,0,5.58.23,61.84,61.84,0,0,0,6.71-.27,10.18,10.18,0,0,0,3.57-.93,3.28,3.28,0,0,0,1.58-1.79,10.65,10.65,0,0,0,.45-3.44,6.82,6.82,0,0,0-.45-2.69,3.22,3.22,0,0,0-1.5-1.52,10.12,10.12,0,0,0-3.09-.91,52,52,0,0,0-5.41-.49L161,36a17.27,17.27,0,0,1-1.94-.19,1.81,1.81,0,0,1-1.6-2v0a2,2,0,0,1,.36-1.25,2.59,2.59,0,0,1,1.49-.69,16.86,16.86,0,0,1,3.08-.2,22.63,22.63,0,0,1,2.75.1,2.36,2.36,0,0,1,1.47.69,2.16,2.16,0,0,1,.52,1.37h6.77v-.49a4.57,4.57,0,0,0-1.21-3.44,6.93,6.93,0,0,0-3.64-1.6,39.85,39.85,0,0,0-6.64-.43,41.87,41.87,0,0,0-6.87.43A7.19,7.19,0,0,0,151.71,30a5.15,5.15,0,0,0-1.33,3.81,6,6,0,0,0,.69,3.11,4.12,4.12,0,0,0,2,1.66,11.21,11.21,0,0,0,3.06.76c1.77.19,3.55.3,5.33.38l1.72.08c.93,0,2,.07,2.89.2a1.79,1.79,0,0,1,1.23.6,2.66,2.66,0,0,1,.34,1.5,2,2,0,0,1-.57,1.54,3,3,0,0,1-1.65.62,25.74,25.74,0,0,1-3,.12,21.42,21.42,0,0,1-3.11-.16,2.65,2.65,0,0,1-1.66-.78,2.48,2.48,0,0,1-.5-1.44Zm49.36-10.2V28H179.39V48H200V44.21H186.46V39.43h12.49V36.33H186.46V31.8Z"/>
      <path d="M82.12,5.19V1.38H61.93v20h7.12V13.8h12V10h-12V5.19ZM98.57,21.57a43.89,43.89,0,0,0,5.66-.32,14.29,14.29,0,0,0,4.12-1.11A6,6,0,0,0,111,18a6.63,6.63,0,0,0,.92-3.62V8.46a6.65,6.65,0,0,0-.95-3.65,5.94,5.94,0,0,0-2.6-2.19,14.43,14.43,0,0,0-4.12-1.1,51,51,0,0,0-11.3,0,14.37,14.37,0,0,0-4.12,1.1,6,6,0,0,0-2.56,2.19,6.62,6.62,0,0,0-.92,3.63v5.86a6.61,6.61,0,0,0,.92,3.62,6,6,0,0,0,2.61,2.19A14.33,14.33,0,0,0,93,21.23,43.49,43.49,0,0,0,98.57,21.57Zm0-4.07a18.63,18.63,0,0,1-3.44-.23,2.87,2.87,0,0,1-1.86-1.08,4.67,4.67,0,0,1-.64-2.46V9a4.53,4.53,0,0,1,.65-2.43,2.89,2.89,0,0,1,1.86-1.1,18.85,18.85,0,0,1,3.44-.22,26.69,26.69,0,0,1,2.75.11,4.94,4.94,0,0,1,1.77.48,2.37,2.37,0,0,1,1.09,1.18,5.09,5.09,0,0,1,.32,2v4.72a4.32,4.32,0,0,1-.59,2.45,2.9,2.9,0,0,1-1.88,1.09,19.07,19.07,0,0,1-3.48.2Zm34.73,3.9h7.15v-3.8a2.67,2.67,0,0,0-1.25-2.37,7.1,7.1,0,0,0-3.7-.94h-.36v-.89l.31,0a10.15,10.15,0,0,0,3.7-1.19,2.93,2.93,0,0,0,1.31-1.68,14.29,14.29,0,0,0,.25-3.15,5.82,5.82,0,0,0-1-3.65,5.37,5.37,0,0,0-3-1.72A27.11,27.11,0,0,0,131,1.38H116.13v20h7.12V15.9h6.48c2,0,3.59.76,3.59,3Zm0-13.19a8.56,8.56,0,0,1-.19,2.14,1.75,1.75,0,0,1-1.07,1.15,6.82,6.82,0,0,1-2.38.32h-6.48V5.5h6.48a5.36,5.36,0,0,1,2.82.56,2.62,2.62,0,0,1,.83,2.15ZM165.74,5.5V1.38H143.12V5.5h7.56V21.39h7.13V5.5Z"/>
  </g>

      <path d="M44.21,40.2h0c-.76,2.4-1.6,3.26-4.16,4a62.56,62.56,0,0,1-13.62,1.68V39.08a4.29,4.29,0,0,0,.86-.34l8.66-4.85a5.59,5.59,0,0,0,2.58-4.41V19.93a5.6,5.6,0,0,0-2.58-4.41l-8.66-4.86a5.9,5.9,0,0,0-5.17,0l-8.66,4.85a5.6,5.6,0,0,0-2.58,4.43v9.55a5.6,5.6,0,0,0,2.58,4.41l8.66,4.85a4.26,4.26,0,0,0,.86.34v6.83A63.48,63.48,0,0,1,9.34,44.24c-2.52-.78-3.39-1.64-4.16-4A65.39,65.39,0,0,1,3.44,24.7,66.08,66.08,0,0,1,5.19,9.2c.76-2.43,1.63-3.27,4.16-4A64.23,64.23,0,0,1,24.7,3.44,65,65,0,0,1,40,5.16c2.53.77,3.39,1.61,4.12,4A65.35,65.35,0,0,1,45.9,24.7a66.11,66.11,0,0,1-1.69,15.5M14.32,20.73h0L23,25.81v9.44l-7.85-4.38a2.34,2.34,0,0,1-.82-1.37Zm10.37,2.06h0l-8.4-4.92,7.5-4.21a2.65,2.65,0,0,1,1.79,0l7.5,4.21Zm1.73,3h0L35,20.73v8.75a2.34,2.34,0,0,1-.82,1.37l-7.81,4.4ZM47.53,8.25C46.42,4.68,44.68,3,41,1.85A66.93,66.93,0,0,0,24.7,0h0A67,67,0,0,0,8.39,1.83C4.71,2.95,3,4.66,1.87,8.25A68,68,0,0,0,0,24.7,68,68,0,0,0,1.87,41.19C3,44.76,4.71,46.48,8.39,47.6a66.94,66.94,0,0,0,16.31,1.83h0A66.93,66.93,0,0,0,41,47.6c3.68-1.11,5.41-2.83,6.52-6.4A68,68,0,0,0,49.38,24.7,68,68,0,0,0,47.53,8.25Z" fill="#fa481c"/>
      <path d="M86,28H78.93v7.8H68V28H60.94V48H68V39.86H79V48H86Zm17.66,20.17a43.15,43.15,0,0,0,5.61-.32,14.11,14.11,0,0,0,4.07-1.13,5.94,5.94,0,0,0,2.58-2.19,6.67,6.67,0,0,0,.89-3.61V35a6.69,6.69,0,0,0-.91-3.63,5.91,5.91,0,0,0-2.58-2.19,14.2,14.2,0,0,0-4.06-1,50.11,50.11,0,0,0-11.21,0A14.17,14.17,0,0,0,94,29.28a6,6,0,0,0-2.59,2.16A6.66,6.66,0,0,0,90.48,35v5.86a6.66,6.66,0,0,0,.91,3.65A6,6,0,0,0,94,46.73a14.13,14.13,0,0,0,4.07,1.11,42.75,42.75,0,0,0,5.59.34Zm0-4.07a18.36,18.36,0,0,1-3.39-.23,2.84,2.84,0,0,1-1.84-1.08,4.7,4.7,0,0,1-.63-2.46V35.64a4.56,4.56,0,0,1,.64-2.43,2.85,2.85,0,0,1,1.83-1.07,18.5,18.5,0,0,1,3.39-.23,26.27,26.27,0,0,1,2.71.11,4.89,4.89,0,0,1,1.76.48,2.36,2.36,0,0,1,1.08,1.17,5.14,5.14,0,0,1,.32,2v4.67a4.34,4.34,0,0,1-.58,2.45,2.87,2.87,0,0,1-1.86,1.09,18.78,18.78,0,0,1-3.44.24ZM138.7,28V41.1a2.86,2.86,0,0,1-.58,1.92,2.89,2.89,0,0,1-1.7.86,22.24,22.24,0,0,1-5.74,0A2.92,2.92,0,0,1,129,43a2.84,2.84,0,0,1-.6-1.92V28h-7V41.46a9.49,9.49,0,0,0,.45,3.18,3.9,3.9,0,0,0,1.63,1.94,10,10,0,0,0,3.67,1.19,41.51,41.51,0,0,0,6.49.4,40.45,40.45,0,0,0,6.28-.39,10.51,10.51,0,0,0,3.7-1.18,4.18,4.18,0,0,0,1.75-2,8.52,8.52,0,0,0,.51-3.17V28Zm11.68,14a7,7,0,0,0,.69,3.12A4.45,4.45,0,0,0,153.19,47a11.68,11.68,0,0,0,3.62.9,54,54,0,0,0,5.58.23,61.84,61.84,0,0,0,6.71-.27,10.18,10.18,0,0,0,3.57-.93,3.28,3.28,0,0,0,1.58-1.79,10.65,10.65,0,0,0,.45-3.44,6.82,6.82,0,0,0-.45-2.69,3.22,3.22,0,0,0-1.5-1.52,10.12,10.12,0,0,0-3.09-.91,52,52,0,0,0-5.41-.49L161,36a17.27,17.27,0,0,1-1.94-.19,1.81,1.81,0,0,1-1.6-2v0a2,2,0,0,1,.36-1.25,2.59,2.59,0,0,1,1.49-.69,16.86,16.86,0,0,1,3.08-.2,22.63,22.63,0,0,1,2.75.1,2.36,2.36,0,0,1,1.47.69,2.16,2.16,0,0,1,.52,1.37h6.77v-.49a4.57,4.57,0,0,0-1.21-3.44,6.93,6.93,0,0,0-3.64-1.6,39.85,39.85,0,0,0-6.64-.43,41.87,41.87,0,0,0-6.87.43A7.19,7.19,0,0,0,151.71,30a5.15,5.15,0,0,0-1.33,3.81,6,6,0,0,0,.69,3.11,4.12,4.12,0,0,0,2,1.66,11.21,11.21,0,0,0,3.06.76c1.77.19,3.55.3,5.33.38l1.72.08c.93,0,2,.07,2.89.2a1.79,1.79,0,0,1,1.23.6,2.66,2.66,0,0,1,.34,1.5,2,2,0,0,1-.57,1.54,3,3,0,0,1-1.65.62,25.74,25.74,0,0,1-3,.12,21.42,21.42,0,0,1-3.11-.16,2.65,2.65,0,0,1-1.66-.78,2.48,2.48,0,0,1-.5-1.44Zm49.36-10.2V28H179.39V48H200V44.21H186.46V39.43h12.49V36.33H186.46V31.8Z" fill="#fff"/>
      <path d="M82.12,5.19V1.38H61.93v20h7.12V13.8h12V10h-12V5.19ZM98.57,21.57a43.89,43.89,0,0,0,5.66-.32,14.29,14.29,0,0,0,4.12-1.11A6,6,0,0,0,111,18a6.63,6.63,0,0,0,.92-3.62V8.46a6.65,6.65,0,0,0-.95-3.65,5.94,5.94,0,0,0-2.6-2.19,14.43,14.43,0,0,0-4.12-1.1,51,51,0,0,0-11.3,0,14.37,14.37,0,0,0-4.12,1.1,6,6,0,0,0-2.56,2.19,6.62,6.62,0,0,0-.92,3.63v5.86a6.61,6.61,0,0,0,.92,3.62,6,6,0,0,0,2.61,2.19A14.33,14.33,0,0,0,93,21.23,43.49,43.49,0,0,0,98.57,21.57Zm0-4.07a18.63,18.63,0,0,1-3.44-.23,2.87,2.87,0,0,1-1.86-1.08,4.67,4.67,0,0,1-.64-2.46V9a4.53,4.53,0,0,1,.65-2.43,2.89,2.89,0,0,1,1.86-1.1,18.85,18.85,0,0,1,3.44-.22,26.69,26.69,0,0,1,2.75.11,4.94,4.94,0,0,1,1.77.48,2.37,2.37,0,0,1,1.09,1.18,5.09,5.09,0,0,1,.32,2v4.72a4.32,4.32,0,0,1-.59,2.45,2.9,2.9,0,0,1-1.88,1.09,19.07,19.07,0,0,1-3.48.2Zm34.73,3.9h7.15v-3.8a2.67,2.67,0,0,0-1.25-2.37,7.1,7.1,0,0,0-3.7-.94h-.36v-.89l.31,0a10.15,10.15,0,0,0,3.7-1.19,2.93,2.93,0,0,0,1.31-1.68,14.29,14.29,0,0,0,.25-3.15,5.82,5.82,0,0,0-1-3.65,5.37,5.37,0,0,0-3-1.72A27.11,27.11,0,0,0,131,1.38H116.13v20h7.12V15.9h6.48c2,0,3.59.76,3.59,3Zm0-13.19a8.56,8.56,0,0,1-.19,2.14,1.75,1.75,0,0,1-1.07,1.15,6.82,6.82,0,0,1-2.38.32h-6.48V5.5h6.48a5.36,5.36,0,0,1,2.82.56,2.62,2.62,0,0,1,.83,2.15ZM165.74,5.5V1.38H143.12V5.5h7.56V21.39h7.13V5.5Z" fill="#7f7f7f"/>

</svg>