<svg xmlns="http://www.w3.org/2000/svg" width="118" height="21" viewBox="0 0 472 84">
    <path fill="#fff" d="M406.22,47h-8.61c-.35-1.3-.43-45-.07-47l31,29.36v-28a35.35,35.35,0,0,1,4.32-.1c1.37,0,2.74,0,4.33,0,.18,5.27.06,10.45.08,15.63s0,10.42,0,15.63v16c-5.41-5-10.46-9.86-15.53-14.68s-10.12-9.6-15.45-14.65c0,3.27,0,6.26,0,9.25s0,6.18,0,9.27Z"/>
    <path fill="#fff" d="M327.39,1.38h8.82c0,.48.13.91.13,1.35q0,12.7,0,25.41a22.37,22.37,0,0,1-1.49,8.38,17.23,17.23,0,0,1-13,10.83,22.49,22.49,0,0,1-12.34-.57c-7-2.4-11-7.35-12.08-14.59a33.34,33.34,0,0,1-.34-4.94c0-8,0-15.91,0-23.86v-2h8.66c0,.67.07,1.34.07,2,0,8.3,0,16.6,0,24.89a11.77,11.77,0,0,0,2.92,8.2,10.89,10.89,0,0,0,11.66,2.79,10.19,10.19,0,0,0,6.92-9.69c.08-8.7,0-17.4.06-26.09,0-.67,0-1.34,0-2.11"/>
    <path fill="#fff" d="M441,46.89c-.31-1.33-.34-43.7,0-45.37,1.29-.3,26.88-.43,30.13-.15A24.06,24.06,0,0,1,471.11,9H449.72V19.78c.62,0,1.22.08,1.82.09H467c.57,1.27.69,4.78.31,7.63a17.13,17.13,0,0,1-1.89.2c-4.58,0-9.15,0-13.73,0h-2c-.18,3.93-.07,7.68-.07,11.66,2.47,0,4.85,0,7.23,0h14.76c0,1.38,0,2.62,0,3.85s0,2.38,0,3.53c-1.39.39-29,.45-30.74.11"/>
    <path fill="#fff" d="M294.83,8.72,288.26,14c-1-.86-1.85-1.66-2.75-2.44-4.81-4.15-11.38-3.83-16.15-.34-4.6,3.36-7.14,7.89-6.89,13.62.27,6,2.89,10.81,8.45,13.54,5.27,2.59,10.31,1.88,14.92-1.73,1-.77,1.86-1.67,2.92-2.62l7.07,5.49a26,26,0,0,1-8.51,6.22,23.68,23.68,0,0,1-26.22-4.46,23.77,23.77,0,0,1-7-11.74A22.07,22.07,0,0,1,257.69,11,23.16,23.16,0,0,1,272.4,1.06c6.92-1.42,13.41-.24,19.1,4.18a23.47,23.47,0,0,1,2.23,2.13c.35.36.65.78,1.1,1.34"/>
    <path fill="#fff" d="M374.51,34l7,5.45a22.83,22.83,0,0,1-5.88,4.9,23.43,23.43,0,0,1-15.43,3.33,23,23,0,0,1-12-5.17,23.8,23.8,0,0,1-8.45-13,22.15,22.15,0,0,1,3.72-18.7,23.14,23.14,0,0,1,14.6-9.78c6.92-1.42,13.42-.26,19.1,4.18a44.45,44.45,0,0,1,3.45,3.37L374,14c-1-.85-1.85-1.65-2.75-2.43-4.82-4.16-11.38-3.84-16.15-.35-4.6,3.36-7.14,7.89-6.9,13.62s2.71,10.52,8,13.31,10.58,2.26,15.38-1.49c1-.77,1.86-1.67,2.93-2.63"/>
    <path fill="#fff" d="M384.92,1.36h8.59c.35,1.28.45,43.27.13,45.45a36.32,36.32,0,0,1-8.62.13c-.31-1.23-.41-43-.09-45.58"/>
    <path fill="#fff" d="M.26.16C4.24,4.34,8.12,8.43,12,12.5s7.74,8.07,11.69,12.2L46.9.43c.15,0,.22,0,.26,0a.21.21,0,0,1,.1.14q0,23,.07,46.09a9,9,0,0,1-.1.94H38.6c0-4.55,0-9,0-13.55V20.32L23.7,35.69,8.77,20.25V47.63H.28C-.07,46.24-.11,2.06.26.16"/>
    <path fill="#fff" d="M123.2,15.36a5,5,0,0,1-4.11,5.12,7.17,7.17,0,0,1-1.74.31c-3.56,0-7.13,0-10.69,0a3.44,3.44,0,0,1-.64-.15V9.26c.45,0,.85-.11,1.24-.11,2.91,0,5.82-.07,8.73,0a11.84,11.84,0,0,1,3.8.72,5.07,5.07,0,0,1,3.41,5.47m4.35,9.53a13.17,13.17,0,0,0,1.59-18,14.23,14.23,0,0,0-10.9-5.3c-6.66-.24-13.34-.11-20-.12a5.19,5.19,0,0,0-.82.13,2.82,2.82,0,0,0-.16.61q0,22.06,0,44.12c0,.36,0,.71.07,1.07,0,0,.06.1.1.14l.26.25c1.23,0,2.6,0,4,0a16.82,16.82,0,0,0,4.35-.22V28.85h7.68l9.73,18.82h9.9L123.14,28.18a52.86,52.86,0,0,0,4.42-3.28"/>
    <path fill="#fff" d="M188.05,1.55V20.5h22c0-.65.11-1.28.11-1.9q0-7.5,0-15V1.75a36.22,36.22,0,0,1,8.69-.14c.33,1.31.47,42.48.16,45.81a31.91,31.91,0,0,1-8.78.1V28.74c-1.51-.39-17.85-.52-22.09-.21-.17,2.09,0,4.21-.07,6.32s0,4.17,0,6.25v6.51h-8.46c-.37-1.24-.47-43.71-.09-46.06Z"/>
    <path fill="#fff" d="M175.06,8.88l-6.7,5.35c-.91-.83-1.72-1.61-2.58-2.33-4.31-3.62-9.11-4.28-14.13-1.87-5.69,2.73-9,7.4-9.39,13.73-.44,7.57,4.16,15.27,13.18,16.63a13.17,13.17,0,0,0,10.16-2.94c1.08-.83,2.07-1.78,3.21-2.77,1.3.49,2.3,1.62,3.46,2.48s2.35,1.81,3.63,2.8a8.79,8.79,0,0,1-.72,1,24.33,24.33,0,0,1-14.48,7.42,23.8,23.8,0,0,1-18.77-5.57,23.83,23.83,0,0,1-8.09-12.52c-1.86-7.15-.33-13.69,3.93-19.58A23.32,23.32,0,0,1,153.06,1c7.65-1.34,14.52.35,20.25,5.81a25.74,25.74,0,0,1,1.76,2.06"/>
    <path fill="#fff" d="M78,30H67.22c1.68-4.22,3.52-8.19,5.38-12.55L78,30M95,47.64,87.51,31.72c-2.44-5.22-4.86-10.44-7.33-15.65S75.36,5.56,72.56,0L50,47.66h9.43l4.34-9.86H81.29l4.32,9.85Z"/>
    <path fill="#fff" d="M222.56,1.53h8.58l.17.18s.1.09.1.14a8.81,8.81,0,0,1,.1,1.06q0,22,0,44.07a2.79,2.79,0,0,1-.18.62h-8.78c-.38-1.57-.37-44.51,0-46.07"/>
    <path fill="#fff" d="M363.22,74.46a5.13,5.13,0,1,1,5.12,5.12,5.17,5.17,0,0,1-5.12-5.12m-2.91,0a8,8,0,1,0,8-8.07,8,8,0,0,0-8,8.07m-11.89-.6V69.36H351a2.23,2.23,0,0,1,2.3,2.17,2.3,2.3,0,0,1-2.3,2.32Zm-2.91,8a.42.42,0,0,0,.43.43H348a.44.44,0,0,0,.42-.43V76.58h2.79a5,5,0,1,0,0-10h-5.25a.42.42,0,0,0-.43.42Zm-23.22-.09a.41.41,0,0,0,.42.51h2a.43.43,0,0,0,.4-.34l1.3-8.47h.07l4,8.79a.4.4,0,0,0,.38.25h.4a.38.38,0,0,0,.38-.25l3.91-8.79h.07l1.32,8.47a.48.48,0,0,0,.42.34h2a.39.39,0,0,0,.4-.51l-2.64-15a.38.38,0,0,0-.4-.34h-.36a.39.39,0,0,0-.38.22l-4.92,10.55H331l-4.92-10.55a.41.41,0,0,0-.38-.22h-.36a.38.38,0,0,0-.4.34Zm-14.8.09a.42.42,0,0,0,.43.43H317a.42.42,0,0,0,.42-.43V80a.42.42,0,0,0-.42-.42H310.4V75.67h5.52a.42.42,0,0,0,.43-.42V73.39a.44.44,0,0,0-.43-.42H310.4V69.29H317a.42.42,0,0,0,.42-.42V67a.42.42,0,0,0-.42-.42h-9.1a.42.42,0,0,0-.43.42Zm-11.78,0a.44.44,0,0,0,.42.43h2.08a.44.44,0,0,0,.43-.43V69.29h3.42a.42.42,0,0,0,.43-.42V67a.42.42,0,0,0-.43-.42h-9.77a.42.42,0,0,0-.42.42v1.83a.42.42,0,0,0,.42.42h3.42Zm-23.57-4.92L274.33,72h.07l2.24,4.92Zm-4.78,5.34h1.95a.67.67,0,0,0,.65-.45L271,79.4h6.68l1.1,2.41a.64.64,0,0,0,.65.45h1.94a.39.39,0,0,0,.38-.58l-6.88-15a.38.38,0,0,0-.38-.25h-.22a.4.4,0,0,0-.38.25l-7,15a.39.39,0,0,0,.38.58m-14.53-.43a.44.44,0,0,0,.43.43h9.54a.42.42,0,0,0,.42-.43V80a.42.42,0,0,0-.42-.43h-5.7v0l6.57-12.18V67a.44.44,0,0,0-.42-.42H253.9a.44.44,0,0,0-.42.42v1.86a.44.44,0,0,0,.42.42h5.59v.09l-6.66,12Zm-18.48,0a.44.44,0,0,0,.42.43h2a.42.42,0,0,0,.43-.43V72.22h0l9.34,10.26h.54a.42.42,0,0,0,.42-.4V67a.44.44,0,0,0-.42-.42h-2.06a.42.42,0,0,0-.43.42v9.23h0l-9.3-9.88h-.56a.42.42,0,0,0-.42.4Zm-15.83,0a.42.42,0,0,0,.43.43H228a.42.42,0,0,0,.43-.43V80a.42.42,0,0,0-.43-.42h-6.62V75.67h5.52a.43.43,0,0,0,.43-.42V73.39a.44.44,0,0,0-.43-.42h-5.52V69.29H228a.42.42,0,0,0,.43-.42V67a.42.42,0,0,0-.43-.42h-9.1a.42.42,0,0,0-.43.42Zm-15.6-1.1a7.19,7.19,0,0,0,4.92,1.74c3.15,0,5.14-2.12,5.14-4.43,0-2.88-2.5-4.18-4.67-5.05-1.81-.74-2.64-1.45-2.64-2.5a1.78,1.78,0,0,1,2-1.57,7.34,7.34,0,0,1,3.11,1.23.59.59,0,0,0,.78-.27l.85-1.27a.55.55,0,0,0-.13-.74,7.87,7.87,0,0,0-4.47-1.5c-3.55,0-5,2.3-5,4.29,0,2.64,2.1,4,4.2,4.83,1.88.76,2.84,1.54,2.84,2.68a1.87,1.87,0,0,1-2,1.72,7.4,7.4,0,0,1-3.37-1.39.52.52,0,0,0-.76.16l-.8,1.39c-.2.36-.09.47.11.67m-22.12,1.1a.42.42,0,0,0,.43.43h9.1a.42.42,0,0,0,.42-.43V80a.42.42,0,0,0-.42-.42H183.7V75.67h5.52a.43.43,0,0,0,.43-.42V73.39a.44.44,0,0,0-.43-.42H183.7V69.29h6.62a.42.42,0,0,0,.42-.42V67a.42.42,0,0,0-.42-.42h-9.1a.42.42,0,0,0-.43.42Zm-20,0a.44.44,0,0,0,.43.43h2a.42.42,0,0,0,.42-.43V72.22h0l9.34,10.26h.54a.42.42,0,0,0,.43-.4V67a.44.44,0,0,0-.43-.42h-2.06a.42.42,0,0,0-.42.42v9.23h0l-9.3-9.88h-.56a.42.42,0,0,0-.43.4Zm-9.68,0a.44.44,0,0,0,.42.43h2.08a.44.44,0,0,0,.43-.43V67a.44.44,0,0,0-.43-.42h-2.08a.44.44,0,0,0-.42.42ZM132,74.46a8,8,0,0,0,8.07,8,7.67,7.67,0,0,0,5.43-2.17.42.42,0,0,0,0-.6l-1.39-1.43a.41.41,0,0,0-.56,0,5.37,5.37,0,0,1-3.42,1.27,5.19,5.19,0,0,1,0-10.37,5.28,5.28,0,0,1,3.44,1.32.36.36,0,0,0,.56,0l1.36-1.41a.42.42,0,0,0,0-.63,7.57,7.57,0,0,0-5.41-2.08A8.05,8.05,0,0,0,132,74.46m-17.84,1.88a6.23,6.23,0,0,0,12.45,0V67a.44.44,0,0,0-.43-.42h-2.12a.42.42,0,0,0-.42.42V76.2a3.26,3.26,0,1,1-6.51,0V67a.42.42,0,0,0-.43-.42h-2.12a.44.44,0,0,0-.42.42ZM95.32,74.46a8,8,0,0,0,8.07,8,7.67,7.67,0,0,0,5.43-2.17.43.43,0,0,0,0-.6l-1.39-1.43a.41.41,0,0,0-.56,0,5.37,5.37,0,0,1-3.42,1.27,5.19,5.19,0,0,1,0-10.37,5.28,5.28,0,0,1,3.44,1.32.36.36,0,0,0,.56,0l1.36-1.41a.42.42,0,0,0,0-.63,7.57,7.57,0,0,0-5.41-2.08,8.05,8.05,0,0,0-8.07,8.07"/>
</svg>