<svg xmlns="http://www.w3.org/2000/svg" width="85" height="28" viewBox="0 0 170 56">
  <polygon fill="#fff" points="95.64 7.38 95.64 16.16 86.85 16.17 86.85 42.52 82.45 42.52 82.45 16.17 78.06 16.17 78.06 24.95 38.52 24.95 38.52 20.56 73.67 20.56 73.67 16.16 34.12 16.17 34.12 29.34 78.06 29.34 78.06 46.91 91.24 46.91 91.24 20.56 95.64 20.56 95.64 29.34 100.03 29.34 100.03 20.56 130.78 20.56 130.78 16.16 100.03 16.16 100.03 7.38 95.64 7.38"/>
    <path fill="#fff" d="M35,13.82l.29,0v.47a2.54,2.54,0,0,1-.44.05c-.52,0-.7-.18-.7-.68V11.45h-.49V11h.49V10.1h.55V11h.59v.44h-.59v2c0,.27.05.37.29.37"/>
    <path fill="#fff" d="M38.15,12.27c0-.57-.12-.85-.66-.85a.89.89,0,0,0-1,.93v1.93H36V9.78h.55v1.69a1.3,1.3,0,0,1,2-.1,1.41,1.41,0,0,1,.14.79v2.12h-.56Z"/>
    <path fill="#fff" d="M41.75,12.35c0-.62-.33-1-.88-1s-.86.33-.91,1Zm.53.88a1.35,1.35,0,0,1-1.43,1.16c-.9,0-1.47-.64-1.47-1.71s.57-1.77,1.47-1.77,1.47.59,1.47,1.66c0,.08,0,.16,0,.24H40c0,.69.36,1.08.94,1.08a.79.79,0,0,0,.84-.66Z"/>
</svg>
