<svg xmlns="http://www.w3.org/2000/svg" xmlns:xlink="http://www.w3.org/1999/xlink" width="42" height="42" viewBox="0 0 84 84">
  <rect x="0.5" y="0.5" width="83" height="83" fill="none" stroke="#fff"/>
  <polygon fill="#fff" points="19.61 54.71 26.75 54.71 27.28 58.05 23.09 58.05 23.09 59.37 25.82 59.37 25.82 62.71 23.09 62.71 23.09 64.03 27.75 64.03 26.84 67.38 19.61 67.38 19.61 54.71"/>
<g fill="#fff" transform="translate(-256.28 -379.36)">
    <path d="M267.86,440c1.3,0,2.09-.42,2.09-1.57s-.79-1.57-2.09-1.57Zm-3.48-5.95H269c2.64,0,4.47,1.37,4.47,4.07a3.53,3.53,0,0,1-1.81,3.11l2.55,5.49h-3.92l-2.35-5.23h0v5.23h-3.48Z"/>
    <path d="M293.82,446.84a7.82,7.82,0,0,1-1.81.21c-4.11,0-6.55-3-6.55-6.77a6.44,6.44,0,0,1,6.58-6.53,8,8,0,0,1,1.7.14l.24,3.85a3.48,3.48,0,0,0-1.7-.44,3,3,0,0,0-3.12,3,3,3,0,0,0,3.16,3.24,3.16,3.16,0,0,0,1.81-.48Z"/>
    <path d="M302.68,437.16a3.24,3.24,0,1,0,0,6.48,3.24,3.24,0,1,0,0-6.48m0,9.89a6.65,6.65,0,1,1,6.84-6.65,6.78,6.78,0,0,1-6.84,6.65"/>
    <path d="M315.25,440c1.29,0,2.09-.42,2.09-1.57s-.8-1.57-2.09-1.57Zm-3.48-5.95h4.57c2.64,0,4.47,1.37,4.47,4.07a3.53,3.53,0,0,1-1.81,3.11l2.55,5.49h-3.92l-2.35-5.23h0v5.23h-3.48Z"/>
    <path d="M326.75,443.18a2.63,2.63,0,0,0,2.46-2.89,2.59,2.59,0,0,0-2.46-2.89Zm-3.48-9.12h3.16a6.09,6.09,0,0,1,6.32,6.26,6.34,6.34,0,0,1-6.73,6.4h-2.76Z"/>
    <path d="M307,450.93h-.74c-.9,0-1.78.49-1.78,1.41s.89,1.41,1.78,1.41H307v.76h-.91a2.2,2.2,0,1,1,0-4.33H307Z"/>
    <path d="M312.15,450.18v2.52a2.25,2.25,0,0,1-4.44,0v-2.52h1v2.52a1.27,1.27,0,0,0,2.53,0v-2.52Z"/>
    <path d="M316.62,450.93h-.74c-.9,0-1.79.49-1.79,1.41s.89,1.41,1.79,1.41h.74v.76h-.91a2.2,2.2,0,1,1,0-4.33h.91Z"/>
    <path d="M318.35,448.73a.49.49,0,1,1-.57.48.51.51,0,0,1,.57-.48m-.48,1.44h1v4.33h-1Z"/>
    <path d="M320.34,454.5V452a2.25,2.25,0,0,1,4.43,0v2.52h-1V452a1.27,1.27,0,0,0-2.53,0v2.52Z"/>
    <path d="M327.29,453.08l-.39-.63,2.56-1.19a1.57,1.57,0,0,0-1.18-.42,1.51,1.51,0,1,0,0,3,1.57,1.57,0,0,0,1.74-1.35l1,.1a2.72,2.72,0,1,1-2.7-2.5,2.71,2.71,0,0,1,2.51,1.37Z"/>
    <path d="M298.93,453.12l-.39-.6,2.21-1.33a1.34,1.34,0,0,0-1.08-.34,1.49,1.49,0,1,0,1.66,1.52l.87,0a2.42,2.42,0,1,1-2.58-2.31,2.39,2.39,0,0,1,2.33,1.21Zm.34-4.7,1,1.21-.66,0-1.34-1.18Z"/>
</g>
</svg>