<svg xmlns="http://www.w3.org/2000/svg" width="54" height="21" viewBox="0 0 108 42">
    <path d="M39,11.3A14.4,14.4,0,1,0,53.4,25.7,14.28,14.28,0,0,0,39,11.3Zm0,24.3a9.9,9.9,0,1,1,9.9-9.9A9.86,9.86,0,0,1,39,35.6Z" fill="#fff"/>
    <path d="M48,0c-3.4.1-5.9.6-7.3,2.2C39,4,39,6.7,39,8.9V9c3.4-.1,5.9-.6,7.3-2.2C48,5,48,2.3,48,0Z" fill="#fff"/>
    <path d="M63.4,11.8H58.8V39.5H74.7V35.1H63.4Z" fill="#fff"/>
    <path d="M10.7,22.8a17.06,17.06,0,0,1-3.8-1.3,2.59,2.59,0,0,1-1.4-2.4,2.72,2.72,0,0,1,1.6-2.6,7.35,7.35,0,0,1,3-.7,13.15,13.15,0,0,1,7.2,2.1L19,14a14.94,14.94,0,0,0-8.9-2.8,10.6,10.6,0,0,0-6.6,2.1A6.88,6.88,0,0,0,.8,19.1,7.54,7.54,0,0,0,2,23.2c1.3,2,3.9,3.1,6.2,3.8.7.2,1.5.4,2.1.6A16.27,16.27,0,0,1,14,28.9a2.9,2.9,0,0,1,1.5,2.6c0,2.3-2.4,3.6-4.4,3.9a13.32,13.32,0,0,1-5.6-.7,14.71,14.71,0,0,1-3.9-2.1L0,36.5a14.5,14.5,0,0,0,10,3.6,12.25,12.25,0,0,0,7.2-2.2,7.41,7.41,0,0,0,3-6.3C20.3,26.2,15.3,23.9,10.7,22.8Z" fill="#fff"/>
    <path d="M91.8,11.3a14.4,14.4,0,1,0,14.4,14.4A14.28,14.28,0,0,0,91.8,11.3Zm0,24.3a9.9,9.9,0,1,1,9.9-9.9A9.86,9.86,0,0,1,91.8,35.6Z" fill="#fff"/>
</svg>